<?xml version="1.0" standalone="no"?>
<!DOCTYPE svg PUBLIC "-//W3C//DTD SVG 20010904//EN"
 "http://www.w3.org/TR/2001/REC-SVG-20010904/DTD/svg10.dtd">
<svg version="1.0" xmlns="http://www.w3.org/2000/svg"
 width="106.000000pt" height="106.000000pt" viewBox="0 0 106.000000 106.000000"
 preserveAspectRatio="xMidYMid meet">

<g transform="translate(0.000000,106.000000) scale(0.100000,-0.100000)"
fill="#000000" stroke="none">
<path d="M290 785 l-245 -245 245 -245 245 -245 245 245 245 245 -245 245
-245 245 -245 -245z m470 -30 l215 -215 -220 -220 -220 -220 -220 220 -220
220 215 215 c118 118 219 215 225 215 6 0 107 -97 225 -215z"/>
<path d="M450 505 c-66 -67 -82 -87 -72 -97 10 -10 26 2 80 55 37 37 72 67 77
67 5 0 40 -30 77 -67 54 -53 70 -65 80 -55 10 10 -5 30 -72 97 l-85 85 -85
-85z"/>
</g>
</svg>
